<svg xmlns="http://www.w3.org/2000/svg" xmlns:xlink="http://www.w3.org/1999/xlink" viewBox="0 0 133.44 133.44"><defs><style>.cls-1{fill:url(#무제_그라디언트_99);}.cls-2{fill:url(#무제_그라디언트_99-2);}.cls-3{fill:url(#무제_그라디언트_99-3);}.cls-4{fill:url(#무제_그라디언트_99-4);}.cls-5{fill:url(#무제_그라디언트_99-5);}</style><linearGradient id="무제_그라디언트_99" x1="9.85" y1="121.67" x2="117.94" y2="13.58" gradientUnits="userSpaceOnUse"><stop offset="0" stop-color="#ed1c24"/><stop offset="0.36" stop-color="#f05608"/><stop offset="0.45" stop-color="#f16600"/><stop offset="0.86" stop-color="#fb0"/></linearGradient><linearGradient id="무제_그라디언트_99-2" x1="9.85" y1="121.67" x2="117.94" y2="13.58" xlink:href="#무제_그라디언트_99"/><linearGradient id="무제_그라디언트_99-3" x1="10.81" y1="122.63" x2="118.9" y2="14.54" xlink:href="#무제_그라디언트_99"/><linearGradient id="무제_그라디언트_99-4" x1="-39.48" y1="72.34" x2="68.61" y2="-35.75" xlink:href="#무제_그라디언트_99"/><linearGradient id="무제_그라디언트_99-5" x1="59.18" y1="171" x2="167.27" y2="62.91" xlink:href="#무제_그라디언트_99"/></defs><g id="레이어_2" data-name="레이어 2"><g id="레이어_1-2" data-name="레이어 1"><circle class="cls-1" cx="116.05" cy="15.47" r="11.42"/><circle class="cls-2" cx="17.39" cy="114.13" r="11.42"/><path class="cls-3" d="M124.43,57.71h-36l12.43-12.42A9,9,0,1,0,88.15,32.56L75.72,45V9a9,9,0,0,0-18,0V45L45.29,32.56A9,9,0,1,0,32.56,45.29L45,57.71H9a9,9,0,0,0,0,18H45L32.56,88.15a9,9,0,1,0,12.73,12.73L57.71,88.45v36a9,9,0,1,0,18,0v-36l12.43,12.43a9,9,0,0,0,12.73-12.73L88.45,75.72h36a9,9,0,1,0,0-18Z"/><circle class="cls-4" cx="17.39" cy="15.47" r="11.42"/><circle class="cls-5" cx="116.05" cy="114.13" r="11.42"/></g></g></svg>