<svg xmlns="http://www.w3.org/2000/svg" xmlns:xlink="http://www.w3.org/1999/xlink" viewBox="0 0 564.98 133.44"><defs><style>.cls-1{fill:url(#무제_그라디언트_99);}.cls-2{fill:url(#무제_그라디언트_99-2);}.cls-3{fill:url(#무제_그라디언트_99-3);}.cls-4{fill:url(#무제_그라디언트_99-4);}.cls-5{fill:url(#무제_그라디언트_99-5);}.cls-6{fill:#333;}</style><linearGradient id="무제_그라디언트_99" x1="9.85" y1="121.67" x2="117.94" y2="13.58" gradientUnits="userSpaceOnUse"><stop offset="0" stop-color="#ed1c24"/><stop offset="0.36" stop-color="#f05608"/><stop offset="0.45" stop-color="#f16600"/><stop offset="0.86" stop-color="#fb0"/></linearGradient><linearGradient id="무제_그라디언트_99-2" x1="9.85" y1="121.67" x2="117.94" y2="13.58" xlink:href="#무제_그라디언트_99"/><linearGradient id="무제_그라디언트_99-3" x1="10.81" y1="122.63" x2="118.9" y2="14.54" xlink:href="#무제_그라디언트_99"/><linearGradient id="무제_그라디언트_99-4" x1="-39.48" y1="72.34" x2="68.61" y2="-35.75" xlink:href="#무제_그라디언트_99"/><linearGradient id="무제_그라디언트_99-5" x1="59.18" y1="171" x2="167.27" y2="62.91" xlink:href="#무제_그라디언트_99"/></defs><g id="레이어_2" data-name="레이어 2"><g id="레이어_1-2" data-name="레이어 1"><circle class="cls-1" cx="116.05" cy="15.47" r="11.42"/><circle class="cls-2" cx="17.39" cy="114.13" r="11.42"/><path class="cls-3" d="M124.43,57.71h-36l12.43-12.42A9,9,0,1,0,88.15,32.56L75.72,45V9a9,9,0,0,0-18,0V45L45.29,32.56A9,9,0,1,0,32.56,45.29L45,57.71H9a9,9,0,0,0,0,18H45L32.56,88.15a9,9,0,1,0,12.73,12.73L57.71,88.45v36a9,9,0,1,0,18,0v-36l12.43,12.43a9,9,0,0,0,12.73-12.73L88.45,75.72h36a9,9,0,1,0,0-18Z"/><circle class="cls-4" cx="17.39" cy="15.47" r="11.42"/><circle class="cls-5" cx="116.05" cy="114.13" r="11.42"/><path class="cls-6" d="M350.27,92.17a6.12,6.12,0,0,1-6.12-6.12V44A21.47,21.47,0,0,1,365.6,22.58h3.27a6.12,6.12,0,1,1,0,12.24H365.6A9.22,9.22,0,0,0,356.4,44v42A6.13,6.13,0,0,1,350.27,92.17Z"/><path class="cls-6" d="M332.3,52.47a6.14,6.14,0,0,0,6.13,6.13h30.92a6.13,6.13,0,0,0,0-12.26H338.43A6.14,6.14,0,0,0,332.3,52.47Z"/><path class="cls-6" d="M304,39.6a23.26,23.26,0,0,0-23.24,23.23V86.05a6.13,6.13,0,0,0,12.25,0V62.83a11,11,0,0,1,22,0V86.05a6.13,6.13,0,0,0,12.26,0V62.83A23.26,23.26,0,0,0,304,39.6Z"/><path class="cls-6" d="M202.87,92.18H178.73a6.13,6.13,0,0,1,0-12.25h24.14a4,4,0,1,0,0-7.92H186.48a16.21,16.21,0,0,1,0-32.42h24.14a6.13,6.13,0,1,1,0,12.25H186.48a4,4,0,1,0,0,7.92h16.39a16.21,16.21,0,1,1,0,32.42Z"/><path class="cls-6" d="M563.47,68.78a5.46,5.46,0,0,0,1.5-4.11c-.44-7.32-3.18-13.56-7.92-18.07a25.31,25.31,0,0,0-17.85-6.8,26,26,0,0,0-25.89,26c0,15.29,11.38,26.38,27.07,26.38a31.22,31.22,0,0,0,16.87-4.82,5.4,5.4,0,0,0-5.63-9.22,22,22,0,0,1-11,2.82c-8,0-13.37-3.87-14.5-10.39h33.19A5.66,5.66,0,0,0,563.47,68.78Zm-37.16-8.06a13.17,13.17,0,0,1,13.19-10.1c6.69,0,12.29,4.29,13.33,10.1Z"/><path class="cls-6" d="M451.05,40.59a6.08,6.08,0,0,0-5.64,3.81,26.29,26.29,0,1,0,.2,42.82,6.08,6.08,0,0,0,11.52-2.71V46.67A6.09,6.09,0,0,0,451.05,40.59ZM430.28,79.7A13.82,13.82,0,1,1,444.1,65.88,13.84,13.84,0,0,1,430.28,79.7Z"/><path class="cls-6" d="M248.87,92.81A23.4,23.4,0,0,0,272.1,69.28V46.79a6.13,6.13,0,1,0-12.25,0V69.28a11,11,0,1,1-22,0V46.79a6.13,6.13,0,1,0-12.25,0V69.28A23.41,23.41,0,0,0,248.87,92.81Z"/><path class="cls-6" d="M389.84,22.58a6.12,6.12,0,0,0-6.12,6.12V86.05a6.13,6.13,0,0,0,12.25,0V28.7A6.12,6.12,0,0,0,389.84,22.58Z"/><path class="cls-6" d="M505.39,40.54a6.13,6.13,0,0,0-8.64.64L480.23,60.36V28.7a6.13,6.13,0,0,0-12.25,0V86.05a6.13,6.13,0,0,0,12.25,0V72.84l16.59,17.43a6.13,6.13,0,0,0,8.87-8.45L491.11,66.5,506,49.18A6.13,6.13,0,0,0,505.39,40.54Z"/></g></g></svg>